<svg width="1600" height="936" viewBox="0 0 1600 936" fill="none" xmlns="http://www.w3.org/2000/svg">
<mask id="mask0_2_359" style="mask-type:luminance" maskUnits="userSpaceOnUse" x="0" y="0" width="1600" height="936">
<path d="M1600 0H0V936H1600V0Z" fill="white"/>
</mask>
<g mask="url(#mask0_2_359)">
<mask id="mask1_2_359" style="mask-type:luminance" maskUnits="userSpaceOnUse" x="0" y="0" width="1600" height="936">
<path d="M1600 0H0V936H1600V0Z" fill="white"/>
</mask>
<g mask="url(#mask1_2_359)">
<path d="M1600 0H0V936H1600V0Z" fill="#1F2641"/>
<g filter="url(#filter0_f_2_359)">
<path d="M-584.851 -503.203L-730.988 -299.278C-806.105 -194.456 -782.025 -48.5865 -677.203 26.531L457.361 839.581C562.183 914.699 708.053 890.618 783.17 785.796L929.307 581.871C1004.42 477.049 980.344 331.179 875.522 256.062L-259.042 -556.988C-363.864 -632.106 -509.734 -608.025 -584.851 -503.203Z" fill="url(#paint0_linear_2_359)" fill-opacity="0.27"/>
</g>
<g opacity="0.7" filter="url(#filter1_f_2_359)">
<path opacity="0.7" d="M1614.02 1554.48C1390.27 1658.59 1122.44 1610.26 1090.16 1353.43C1057.88 1096.6 1215.78 987.058 1480.75 741.74C1698.86 539.803 1915.65 334.09 1947.94 590.921C1980.22 847.753 1949.7 1336.01 1614.02 1554.48Z" fill="url(#paint1_linear_2_359)"/>
</g>
<path d="M1600 -100H0V936H1600V-100Z" fill="url(#paint2_radial_2_359)"/>
<g filter="url(#filter2_f_2_359)">
<path d="M879.222 -117.598L629.818 230.43C554.701 335.252 578.781 481.122 683.603 556.239L1480.9 1127.6C1585.72 1202.71 1731.59 1178.63 1806.71 1073.81L2056.11 725.783C2131.23 620.961 2107.15 475.091 2002.33 399.973L1205.03 -171.383C1100.21 -246.5 954.339 -222.42 879.222 -117.598Z" fill="url(#paint3_linear_2_359)" fill-opacity="0.27"/>
</g>
<g filter="url(#filter3_f_2_359)">
<path d="M685.854 -265.203L496.012 -0.290253C420.895 104.532 444.975 250.402 549.797 325.519L1554.46 1045.48C1659.28 1120.6 1805.15 1096.52 1880.27 991.696L2070.11 726.783C2145.23 621.961 2121.15 476.091 2016.33 400.974L1011.66 -318.988C906.841 -394.105 760.971 -370.025 685.854 -265.203Z" fill="url(#paint4_linear_2_359)" fill-opacity="0.27"/>
</g>
</g>
</g>
<defs>
<filter id="filter0_f_2_359" x="-1074.71" y="-900.709" width="2347.73" height="2084.01" filterUnits="userSpaceOnUse" color-interpolation-filters="sRGB">
<feFlood flood-opacity="0" result="BackgroundImageFix"/>
<feBlend mode="normal" in="SourceGraphic" in2="BackgroundImageFix" result="shape"/>
<feGaussianBlur stdDeviation="150" result="effect1_foregroundBlur_2_359"/>
</filter>
<filter id="filter1_f_2_359" x="902.316" y="287.317" width="1239.24" height="1502.13" filterUnits="userSpaceOnUse" color-interpolation-filters="sRGB">
<feFlood flood-opacity="0" result="BackgroundImageFix"/>
<feBlend mode="normal" in="SourceGraphic" in2="BackgroundImageFix" result="shape"/>
<feGaussianBlur stdDeviation="91.8413" result="effect1_foregroundBlur_2_359"/>
</filter>
<filter id="filter2_f_2_359" x="286.098" y="-515.104" width="2113.74" height="1986.42" filterUnits="userSpaceOnUse" color-interpolation-filters="sRGB">
<feFlood flood-opacity="0" result="BackgroundImageFix"/>
<feBlend mode="normal" in="SourceGraphic" in2="BackgroundImageFix" result="shape"/>
<feGaussianBlur stdDeviation="150" result="effect1_foregroundBlur_2_359"/>
</filter>
<filter id="filter3_f_2_359" x="152.292" y="-662.708" width="2261.54" height="2051.91" filterUnits="userSpaceOnUse" color-interpolation-filters="sRGB">
<feFlood flood-opacity="0" result="BackgroundImageFix"/>
<feBlend mode="normal" in="SourceGraphic" in2="BackgroundImageFix" result="shape"/>
<feGaussianBlur stdDeviation="150" result="effect1_foregroundBlur_2_359"/>
</filter>
<linearGradient id="paint0_linear_2_359" x1="-657.919" y1="-401.241" x2="856.24" y2="683.834" gradientUnits="userSpaceOnUse">
<stop offset="0.9999" stop-color="#CFCFE3"/>
<stop offset="1" stop-color="#5454D4" stop-opacity="0.42"/>
</linearGradient>
<linearGradient id="paint1_linear_2_359" x1="1921.46" y1="1039.29" x2="1047.78" y2="1149.11" gradientUnits="userSpaceOnUse">
<stop stop-color="#FFB72C" stop-opacity="0.1"/>
<stop offset="1" stop-color="#FFB72C" stop-opacity="0.58"/>
</linearGradient>
<radialGradient id="paint2_radial_2_359" cx="0" cy="0" r="1" gradientUnits="userSpaceOnUse" gradientTransform="translate(800 418) rotate(32.9231) scale(953.06 869.62)">
<stop stop-opacity="0"/>
<stop offset="0.79"/>
</radialGradient>
<linearGradient id="paint3_linear_2_359" x1="754.52" y1="56.4164" x2="1931.41" y2="899.799" gradientUnits="userSpaceOnUse">
<stop stop-color="#5454D4"/>
<stop offset="1" stop-color="#5454D4" stop-opacity="0.42"/>
</linearGradient>
<linearGradient id="paint4_linear_2_359" x1="590.933" y1="-132.747" x2="1975.19" y2="859.241" gradientUnits="userSpaceOnUse">
<stop stop-color="#5454D4"/>
<stop offset="1" stop-color="#5454D4" stop-opacity="0.42"/>
</linearGradient>
</defs>
</svg>
